<svg id="netflix" enable-background="new 0 0 300 300" height="512" viewBox="0 0 300 300" width="512" xmlns="http://www.w3.org/2000/svg"><g><circle cx="186" cy="122" fill="#d2ddff" r="86"/><g fill="#4c241d"><circle cx="250" cy="254" r="4.529"/><circle cx="170" cy="62" r="4.529"/><path d="m120.652 65.348c-1.023 0-2.047-.391-2.828-1.172-1.562-1.562-1.562-4.094 0-5.656l14.695-14.695c1.562-1.562 4.094-1.562 5.656 0s1.562 4.094 0 5.656l-14.695 14.695c-.781.781-1.804 1.172-2.828 1.172z"/><path d="m135.348 65.348c-1.023 0-2.047-.391-2.828-1.172l-14.696-14.696c-1.562-1.562-1.562-4.094 0-5.656s4.094-1.562 5.656 0l14.695 14.695c1.562 1.562 1.562 4.094 0 5.656-.78.782-1.804 1.173-2.827 1.173z"/></g><g><path d="m260 216h-228v-109.265c0-5.929 4.806-10.735 10.735-10.735h206.531c5.929 0 10.735 4.806 10.735 10.735v109.265z" fill="#9dc1e4"/><path d="m260 220h-228c-2.211 0-4-1.789-4-4v-109.266c0-8.125 6.609-14.734 14.734-14.734h206.531c8.126 0 14.735 6.609 14.735 14.734v109.266c0 2.211-1.789 4-4 4zm-224-8h220v-105.266c0-3.715-3.02-6.734-6.734-6.734h-206.532c-3.714 0-6.734 3.02-6.734 6.734z" fill="#4c241d"/></g><g><path d="m249.265 240h-206.53c-5.929 0-10.735-4.806-10.735-10.735v-13.265h228v13.265c0 5.929-4.806 10.735-10.735 10.735z" fill="#6b4f5b"/><path d="m249.266 244h-206.532c-8.125 0-14.734-6.609-14.734-14.734v-13.266c0-2.211 1.789-4 4-4h228c2.211 0 4 1.789 4 4v13.266c0 8.125-6.609 14.734-14.734 14.734zm-213.266-24v9.266c0 3.715 3.02 6.734 6.734 6.734h206.531c3.715 0 6.734-3.02 6.734-6.734v-9.266z" fill="#4c241d"/></g><path d="m172 232h-48c-2.211 0-4-1.789-4-4s1.789-4 4-4h48c2.211 0 4 1.789 4 4s-1.789 4-4 4z" fill="#4c241d"/><g><path d="m168 260h-40l8-20h24z" fill="#b5a19c"/><path d="m168 264h-40c-1.328 0-2.566-.66-3.312-1.758-.742-1.098-.895-2.496-.402-3.727l8-20c.609-1.52 2.078-2.516 3.715-2.516h24c1.637 0 3.105.996 3.715 2.516l8 20c.492 1.23.34 2.629-.402 3.727-.748 1.098-1.986 1.758-3.314 1.758zm-34.094-8h28.188l-4.801-12h-18.586z" fill="#4c241d"/></g><path d="m208 264h-120c-2.211 0-4-1.789-4-4s1.789-4 4-4h120c2.211 0 4 1.789 4 4s-1.789 4-4 4z" fill="#4c241d"/><path d="m234.004 64c-.012 0-.023 0-.031 0-3.742-.008-7.254-1.473-9.891-4.121-2.641-2.648-4.09-6.168-4.082-9.906.008-3.742 1.473-7.254 4.121-9.891 2.641-2.633 6.148-4.082 9.875-4.082h.031c3.742.008 7.254 1.473 9.891 4.121 2.641 2.648 4.09 6.168 4.082 9.906-.008 3.742-1.473 7.254-4.121 9.891-2.641 2.633-6.149 4.082-9.875 4.082zm-.008-20c-1.598 0-3.098.621-4.23 1.75-1.137 1.129-1.762 2.637-1.766 4.238s.617 3.109 1.75 4.246c1.129 1.137 2.637 1.762 4.238 1.766h.016c1.598 0 3.098-.621 4.23-1.75 1.137-1.129 1.762-2.637 1.766-4.238s-.617-3.109-1.75-4.246c-1.129-1.137-2.637-1.762-4.238-1.766-.004 0-.008 0-.016 0z" fill="#4c241d"/><g><path d="m136 200h-16v-84l16 4z" fill="#f53e28"/><path d="m136 204h-16c-2.211 0-4-1.789-4-4v-84c0-1.23.566-2.395 1.539-3.152s2.238-1.031 3.43-.727l16 4c1.781.445 3.031 2.043 3.031 3.879v80c0 2.211-1.789 4-4 4zm-12-8h8v-72.875l-8-2z" fill="#4c241d"/></g><g><path d="m176 200h-16v-80l16-4z" fill="#f53e28"/><path d="m176 204h-16c-2.211 0-4-1.789-4-4v-80c0-1.836 1.25-3.434 3.031-3.879l16-4c1.188-.312 2.453-.035 3.43.727.973.757 1.539 1.922 1.539 3.152v84c0 2.211-1.789 4-4 4zm-12-8h8v-74.875l-8 2z" fill="#4c241d"/></g><g><path d="m176 200h-20l-36-84 20 4z" fill="#e66353"/><path d="m176 204h-20c-1.602 0-3.047-.953-3.676-2.426l-36-84c-.586-1.363-.367-2.941.57-4.094.934-1.152 2.438-1.707 3.891-1.402l20 4c1.266.254 2.332 1.102 2.863 2.281l36 80c.555 1.238.449 2.672-.289 3.812s-2.004 1.829-3.359 1.829zm-17.363-8h11.176l-32.617-72.48-10.523-2.105z" fill="#4c241d"/></g><path d="m46 126c-1.023 0-2.047-.391-2.828-1.172-1.562-1.562-1.562-4.094 0-5.656l14-14c1.562-1.562 4.094-1.562 5.656 0s1.562 4.094 0 5.656l-14 14c-.781.781-1.805 1.172-2.828 1.172z" fill="#fff"/><path d="m48 140c-1.023 0-2.047-.391-2.828-1.172-1.562-1.562-1.562-4.094 0-5.656l28-28c1.562-1.562 4.094-1.562 5.656 0s1.562 4.094 0 5.656l-28 28c-.781.781-1.805 1.172-2.828 1.172z" fill="#fff"/></g></svg>